<svg xmlns="http://www.w3.org/2000/svg" viewBox="0 0 100 100">
  <path fill="currentColor" transform="matrix(0.057,0,0,-0.057,10,87)" d="M123,0 l954,0 c129,0,223,94,223,223 l0,377 l-1400,0 l0,-377 c0,-129,94,-223,223,-223 Z M124,389 l323,47 l-63,329 c-41,216,-358,179,-317,-50 Z M191,982 c61,0,109,46,109,109 c0,61,-48,109,-109,109 c-61,0,-109,-48,-109,-109 c0,-61,48,-109,109,-109 Z M1004,1200 c-109,-202,109,-298,0,-500 l109,0 c109,202,-109,298,0,500 Z M523,1200 c-110,-202,109,-298,0,-500 l109,0 c109,202,-109,298,0,500 Z M764,1200 c-109,-202,109,-298,0,-500 l109,0 c109,202,-109,298,0,500 Z"/>
</svg>
