<svg xmlns="http://www.w3.org/2000/svg" viewBox="0 0 200 200">
  <path fill="currentColor" fill-rule="evenodd" d="M58.405 38.904c-2.378 1.08-5 3.322-6.25 5.346C50.02 47.703 50 48.229 50 100.136v52.4l2.473 3.639c4.614 6.79 7.278 7.209 41.308 6.509 16.346-.336 31.65-1.084 34.01-1.662 11.956-2.927 21.318-10.41 26.714-21.35 7.199-14.595 6.572-29.623-1.731-41.536l-2.345-3.364 2.402-7.136c1.966-5.84 2.299-8.379 1.836-13.98-1.131-13.667-9.656-25.948-22.033-31.74-8.07-3.777-18.814-4.863-48.134-4.868-19.318-.004-22.499.223-26.095 1.856m3.095 5.041c-1.1.451-2.9 1.819-4 3.041-1.933 2.148-2.01 3.856-2.305 50.868-.207 33.106.045 49.842.789 52.39 1.868 6.4 3.519 6.757 31.216 6.748 37.94-.011 46.392-1.698 55.595-11.093 6.65-6.788 9.636-13.796 10.055-23.589.418-9.781-1.353-16.062-6.39-22.659l-3.425-4.485 2.697-5.833c3.897-8.427 3.815-18.526-.215-26.623-3.331-6.694-9.773-13.051-16.03-15.819-2.401-1.062-7.655-2.358-11.676-2.88-8.897-1.155-53.522-1.207-56.311-.066M64 99.896V148l24.25-.031c36.881-.047 44.029-1.636 50.559-11.242 3.89-5.722 5.191-9.94 5.191-16.829 0-9.501-3.451-15.442-11.659-20.075l-5.453-3.077 3.016-1.834c6.123-3.723 10.818-14.433 9.503-21.677-1.538-8.477-8.251-16.463-16.132-19.19-2.601-.9-12.403-1.454-31.525-1.78L64 51.793zM84 79.07v11.071l15.584-.321 15.585-.32 2.915-3.266c5.52-6.182 3.017-15.001-4.879-17.194-2.038-.566-9.442-1.031-16.455-1.034L84 68zm.219 39.56.281 12.87 15.5-.091c17.255-.102 20.726-1.045 23.483-6.376 1.957-3.785 1.921-7.379-.118-11.676-2.726-5.745-5.818-6.682-23.646-7.168l-15.781-.43z"/>
</svg>
